<svg width="1200" height="800" viewBox="0 0 1200 800" fill="none" xmlns="http://www.w3.org/2000/svg">
  <rect width="1200" height="800" rx="40" fill="url(#bg)"/>
  <rect x="744" y="126" width="274" height="420" rx="28" fill="#F8FAFC" fill-opacity="0.22"/>
  <rect x="790" y="178" width="182" height="320" rx="20" fill="#F8FAFC" fill-opacity="0.3"/>
  <rect x="180" y="120" width="342" height="520" rx="32" fill="#F8FAFC" fill-opacity="0.12"/>
  <rect x="246" y="194" width="210" height="64" rx="18" fill="#F8FAFC" fill-opacity="0.26"/>
  <rect x="246" y="290" width="210" height="64" rx="18" fill="#F8FAFC" fill-opacity="0.2"/>
  <rect x="246" y="386" width="156" height="64" rx="18" fill="#F8FAFC" fill-opacity="0.16"/>
  <circle cx="596" cy="242" r="92" fill="#F8FAFC" fill-opacity="0.94"/>
  <path d="M482 570C482 460 530 396 596 396C662 396 710 460 710 570V780H482V570Z" fill="#E2E8F0"/>
  <rect x="544" y="468" width="104" height="212" rx="22" fill="#14B8A6"/>
  <circle cx="852" cy="284" r="84" fill="#F8FAFC" fill-opacity="0.94"/>
  <path d="M750 586C750 488 792 426 852 426C912 426 954 488 954 586V780H750V586Z" fill="#E2E8F0"/>
  <rect x="802" y="494" width="100" height="206" rx="22" fill="#0EA5E9"/>
  <defs>
    <linearGradient id="bg" x1="0" y1="0" x2="1100" y2="760" gradientUnits="userSpaceOnUse">
      <stop stop-color="#0F766E"/>
      <stop offset="1" stop-color="#155E75"/>
    </linearGradient>
  </defs>
</svg>
